# xmcd
#
# Track frame offsets:
#	150
#	17901
#	34204
#	51252
#	64224
#	79371
#	93152
#	108290
#	126937
#	144213
#	160631
#	178311
#	194380
#	212430
#	229511
#	245643
#	260433
#	273875
#	291464
#	308281
#	324792
#
# Disc length: 4589 seconds
#
# Revision: 0
# Processed by: cddbd v1.5.2PL0 Copyright (c) Steve Scherf et al.
# Submitted via: audiograbber 1.83.01
#
DISCID=2311eb15
DTITLE=varius artist - Die Deutsche Superhitparade CD 1
DYEAR=2007
DGENRE=Schlager
TTITLE0=Die Amigos - Meine Grosse Liebe
TTITLE1=Claudia Jung and Nik P - Sommerwein, Wie Die Liebe Süß Und Wild
TTITLE2=Semino Rossi - Du Bist Mein Erster Gedanke
TTITLE3=Fernando Express - Tanz Auf Dem Vulkan
TTITLE4=G.G. Anderson - Adiole My Love
TTITLE5=Die Amigos - Wolken Sie Ziehen Nach Süden
TTITLE6=Die Flippers - Laguna D'Amore
TTITLE7=Frank Michael - Toutes Les Femmes Sont Belles
TTITLE8=Roger Whittacker - Mein Leben Gehört Nur Dir
TTITLE9=Die Amigos - Ich Schenke Nur Dir Meine Liebe
TTITLE10=Andrea Berg - Wie Viel Träume Hab Ich Geträumt
TTITLE11=Monika Martin - Lass Ihn Los
TTITLE12=Bernhard Brink - Am Allerliebsten
TTITLE13=Die Amigos - Komm Tanz Mit Mir
TTITLE14=Andrea Jürgens - Lass Meine Sehnsucht Nicht Allein
TTITLE15=Roland Kaiser - Sexy Warst Du Schon Immer
TTITLE16=Helene Fischer - Manchmal Kommt Die Liebe Einfach So
TTITLE17=Die Amigos - Das Korallenriff Von San Fernando
TTITLE18=Andreas Martin - Einmal Zu Oft
TTITLE19=Michelle - Vergiss Meinen Namen
TTITLE20=Die Amigos - Alle Engel Sind Amigos
EXTD=
EXTT0=
EXTT1=
EXTT2=
EXTT3=
EXTT4=
EXTT5=
EXTT6=
EXTT7=
EXTT8=
EXTT9=
EXTT10=
EXTT11=
EXTT12=
EXTT13=
EXTT14=
EXTT15=
EXTT16=
EXTT17=
EXTT18=
EXTT19=
EXTT20=
PLAYORDER=
